<mxfile host="app.diagrams.net" modified="2023-04-14T15:51:33.926Z" agent="Mozilla/5.0 (Windows NT 10.0; Win64; x64) AppleWebKit/537.36 (KHTML, like Gecko) Chrome/112.0.0.0 Safari/537.36" etag="IcgvqvIwznSLmUo3immu" version="21.1.7" type="device">
  <diagram name="Page-1" id="b5b7bab2-c9e2-2cf4-8b2a-24fd1a2a6d21">
    <mxGraphModel dx="2117" dy="541" grid="1" gridSize="10" guides="1" tooltips="1" connect="1" arrows="1" fold="1" page="1" pageScale="1" pageWidth="827" pageHeight="1169" background="none" math="0" shadow="0">
      <root>
        <mxCell id="0" />
        <mxCell id="1" parent="0" />
        <mxCell id="7ajs4yEjvw6Rf-3CMjeZ-1" value="&lt;p style=&quot;margin:0px;margin-top:4px;text-align:center;text-decoration:underline;&quot;&gt;&lt;b&gt;&amp;lt;&amp;lt;Enum&amp;gt;&amp;gt;&lt;/b&gt;&lt;/p&gt;&lt;p style=&quot;margin:0px;margin-top:4px;text-align:center;text-decoration:underline;&quot;&gt;&lt;b&gt;Tree&lt;/b&gt;&lt;/p&gt;&lt;hr&gt;&lt;p style=&quot;margin:0px;margin-left:8px;&quot;&gt;DESERT_SHRUB,&lt;/p&gt;&lt;p style=&quot;margin:0px;margin-left:8px;&quot;&gt;CHERRY_PALM,&lt;/p&gt;&lt;p style=&quot;margin:0px;margin-left:8px;&quot;&gt;OLIVE_TREE,&lt;/p&gt;&lt;p style=&quot;margin:0px;margin-left:8px;&quot;&gt;COCONUT_PALM,&lt;/p&gt;&lt;p style=&quot;margin:0px;margin-left:8px;&quot;&gt;DATE,&lt;/p&gt;&lt;p style=&quot;margin:0px;margin-left:8px;&quot;&gt;&lt;br&gt;&lt;/p&gt;" style="verticalAlign=top;align=left;overflow=fill;fontSize=12;fontFamily=Helvetica;html=1;whiteSpace=wrap;" parent="1" vertex="1">
          <mxGeometry x="-320" y="490" width="160" height="140" as="geometry" />
        </mxCell>
        <mxCell id="7ajs4yEjvw6Rf-3CMjeZ-6" value="&lt;p style=&quot;margin:0px;margin-top:4px;text-align:center;text-decoration:underline;&quot;&gt;&lt;b&gt;&amp;lt;&amp;lt;Enum&amp;gt;&amp;gt;&lt;/b&gt;&lt;/p&gt;&lt;p style=&quot;margin:0px;margin-top:4px;text-align:center;text-decoration:underline;&quot;&gt;Environment&lt;b&gt;&lt;br&gt;&lt;/b&gt;&lt;/p&gt;&lt;hr&gt;&lt;p style=&quot;margin:0px;margin-left:8px;&quot;&gt;LAND,&lt;/p&gt;&lt;p style=&quot;margin:0px;margin-left:8px;&quot;&gt;GRAVEL_LAND,&lt;/p&gt;&lt;p style=&quot;margin:0px;margin-left:8px;&quot;&gt;ROCK,&lt;/p&gt;&lt;p style=&quot;margin:0px;margin-left:8px;&quot;&gt;STONE,&lt;/p&gt;&lt;p style=&quot;margin:0px;margin-left:8px;&quot;&gt;IRON,&lt;/p&gt;&lt;p style=&quot;margin:0px;margin-left:8px;&quot;&gt;GRASS,&lt;/p&gt;&lt;p style=&quot;margin:0px;margin-left:8px;&quot;&gt;MEADOW,&lt;/p&gt;&lt;p style=&quot;margin:0px;margin-left:8px;&quot;&gt;DENSE_GRASS_LAND,&lt;/p&gt;&lt;p style=&quot;margin:0px;margin-left:8px;&quot;&gt;OIL,&lt;/p&gt;&lt;p style=&quot;margin:0px;margin-left:8px;&quot;&gt;PLAIN,&lt;/p&gt;&lt;p style=&quot;margin:0px;margin-left:8px;&quot;&gt;SHALLOW_LAKE,&lt;/p&gt;&lt;p style=&quot;margin:0px;margin-left:8px;&quot;&gt;RIVER,&lt;/p&gt;&lt;p style=&quot;margin:0px;margin-left:8px;&quot;&gt;SMALL_POND,&lt;/p&gt;&lt;p style=&quot;margin:0px;margin-left:8px;&quot;&gt;BIG_POND,&lt;/p&gt;&lt;p style=&quot;margin:0px;margin-left:8px;&quot;&gt;BEACH,&lt;/p&gt;&lt;p style=&quot;margin:0px;margin-left:8px;&quot;&gt;SEA&lt;/p&gt;&lt;p style=&quot;margin:0px;margin-left:8px;&quot;&gt;&lt;br&gt;&lt;/p&gt;&lt;p style=&quot;margin:0px;margin-left:8px;&quot;&gt;&lt;br&gt;&lt;/p&gt;" style="verticalAlign=top;align=left;overflow=fill;fontSize=12;fontFamily=Helvetica;html=1;whiteSpace=wrap;" parent="1" vertex="1">
          <mxGeometry x="-510" y="340" width="160" height="290" as="geometry" />
        </mxCell>
        <mxCell id="7ajs4yEjvw6Rf-3CMjeZ-7" value="&lt;p style=&quot;margin:0px;margin-top:4px;text-align:center;text-decoration:underline;&quot;&gt;&lt;b&gt;&amp;lt;&amp;lt;Enum&amp;gt;&amp;gt;&lt;/b&gt;&lt;/p&gt;&lt;p style=&quot;margin:0px;margin-top:4px;text-align:center;text-decoration:underline;&quot;&gt;Direction&lt;b&gt;&lt;br&gt;&lt;/b&gt;&lt;/p&gt;&lt;hr&gt;&lt;p style=&quot;margin:0px;margin-left:8px;&quot;&gt;NORTH,&lt;/p&gt;&lt;p style=&quot;margin:0px;margin-left:8px;&quot;&gt;SOUTH,&lt;/p&gt;&lt;p style=&quot;margin:0px;margin-left:8px;&quot;&gt;EAST,&lt;/p&gt;&lt;p style=&quot;margin:0px;margin-left:8px;&quot;&gt;WEST,&lt;/p&gt;&lt;p style=&quot;margin:0px;margin-left:8px;&quot;&gt;RANDOM&lt;/p&gt;&lt;p style=&quot;margin:0px;margin-left:8px;&quot;&gt;&lt;br&gt;&lt;/p&gt;&lt;p style=&quot;margin:0px;margin-left:8px;&quot;&gt;&lt;br&gt;&lt;/p&gt;" style="verticalAlign=top;align=left;overflow=fill;fontSize=12;fontFamily=Helvetica;html=1;whiteSpace=wrap;" parent="1" vertex="1">
          <mxGeometry x="-700" y="500" width="160" height="130" as="geometry" />
        </mxCell>
      </root>
    </mxGraphModel>
  </diagram>
</mxfile>
